<svg width="124" height="114" viewBox="0 0 124 114" fill="none" xmlns="http://www.w3.org/2000/svg">
<path d="M124 110.522V35.0435C124 33.5548 122.793 32.3478 121.304 32.3478H72.7826V2.69565C72.7826 1.20699 71.5756 0 70.087 0H53.913C52.4244 0 51.2174 1.20699 51.2174 2.69565V32.3478H2.69565C1.20699 32.3478 0 33.5548 0 35.0435V110.522C0 112.01 1.20699 113.217 2.69565 113.217H121.304C122.793 113.217 124 112.01 124 110.522ZM67.3913 5.3913V17.6731C64.0744 15.6737 59.9256 15.6737 56.6087 17.6731V5.3913H67.3913ZM62 21.5652C64.9773 21.5652 67.3913 23.9792 67.3913 26.9565V43.1304H56.6087V26.9565C56.6087 23.9792 59.0227 21.5652 62 21.5652ZM118.609 107.826H5.3913V37.7391H51.2174V43.1304H45.8261V48.5217H78.1739V43.1304H72.7826V37.7391H118.609V107.826Z" fill="#3A5BD1"/>
<path d="M62 53.9131H13.4782C11.9896 53.9131 10.7826 55.1201 10.7826 56.6087V99.7392C10.7826 101.228 11.9896 102.435 13.4782 102.435H62C63.4887 102.435 64.6956 101.228 64.6956 99.7392V56.6087C64.6956 55.1201 63.4887 53.9131 62 53.9131ZM27.2263 97.0435C28.0424 92.9382 30.7078 89.4383 34.4472 87.5574C35.3554 87.0994 35.928 86.1688 35.928 85.1513C35.928 84.1352 35.3554 83.2046 34.4472 82.7452C31.3672 81.2131 29.7456 77.762 30.534 74.4122C31.3211 71.0636 34.309 68.6957 37.7496 68.6957C41.1903 68.6957 44.1795 71.0636 44.9666 74.4122C45.7537 77.762 44.1321 81.2131 41.0521 82.7452C40.1439 83.2046 39.5726 84.1352 39.5726 85.1513C39.5726 86.1688 40.1439 87.0994 41.0521 87.5574C44.7836 89.4423 47.4398 92.9421 48.2519 97.0435H27.2263ZM59.3043 97.0435H53.7024C53.0522 92.3274 50.6448 88.0312 46.9633 85.0131C49.268 82.6399 50.5527 79.4599 50.5435 76.1522C50.5435 69.0801 44.8113 63.3479 37.7391 63.3479C30.667 63.3479 24.9348 69.0801 24.9348 76.1522C24.9295 79.4612 26.2194 82.6426 28.5281 85.0131C24.8413 88.0286 22.43 92.3261 21.7758 97.0435H16.1739V59.3044H59.3043V97.0435Z" fill="#3A5BD1"/>
<path d="M75.4783 80.8691H113.217V86.2604H75.4783V80.8691Z" fill="#3A5BD1"/>
<path d="M75.4783 64.6963H113.217V70.0876H75.4783V64.6963Z" fill="#3A5BD1"/>
<path d="M107.826 97.0439H113.217V102.435H107.826V97.0439Z" fill="#3A5BD1"/>
<path d="M97.0435 97.0439H102.435V102.435H97.0435V97.0439Z" fill="#3A5BD1"/>
<path d="M86.2609 97.0439H91.6522V102.435H86.2609V97.0439Z" fill="#3A5BD1"/>
<path d="M75.4783 97.0439H80.8696V102.435H75.4783V97.0439Z" fill="#3A5BD1"/>
</svg>
