<svg width="380" height="108" viewBox="0 0 380 108" fill="none" xmlns="http://www.w3.org/2000/svg">
<path d="M49.608 0.383999C52.68 0.383999 55.464 1.104 57.96 2.544C60.504 3.936 62.496 5.88 63.936 8.376C65.376 10.872 66.096 13.68 66.096 16.8C66.096 19.872 65.376 22.68 63.936 25.224C62.496 27.72 60.504 29.688 57.96 31.128C55.464 32.52 52.68 33.216 49.608 33.216C46.104 33.216 43.104 32.568 40.608 31.272C38.112 29.976 35.88 28.2 33.912 25.944C31.944 28.2 29.712 29.976 27.216 31.272C24.768 32.568 21.792 33.216 18.288 33.216C15.12 33.216 12.264 32.52 9.72 31.128C7.176 29.688 5.16 27.72 3.672 25.224C2.232 22.728 1.512 19.92 1.512 16.8C1.512 13.68 2.232 10.872 3.672 8.376C5.16 5.88 7.176 3.936 9.72 2.544C12.264 1.104 15.12 0.383999 18.288 0.383999C21.792 0.383999 24.768 1.032 27.216 2.328C29.712 3.624 31.944 5.4 33.912 7.656C35.88 5.4 38.112 3.624 40.608 2.328C43.104 1.032 46.104 0.383999 49.608 0.383999ZM19.44 22.272C21.024 22.272 22.44 21.816 23.688 20.904C24.936 19.944 26.184 18.576 27.432 16.8C26.184 15.024 24.936 13.68 23.688 12.768C22.44 11.808 21.024 11.328 19.44 11.328C18 11.328 16.776 11.856 15.768 12.912C14.808 13.968 14.328 15.264 14.328 16.8C14.328 18.336 14.808 19.632 15.768 20.688C16.776 21.744 18 22.272 19.44 22.272ZM48.168 22.272C49.656 22.272 50.88 21.744 51.84 20.688C52.8 19.632 53.28 18.336 53.28 16.8C53.28 15.264 52.8 13.968 51.84 12.912C50.88 11.856 49.656 11.328 48.168 11.328C46.584 11.328 45.168 11.808 43.92 12.768C42.72 13.68 41.496 15.024 40.248 16.8C41.496 18.576 42.72 19.944 43.92 20.904C45.168 21.816 46.584 22.272 48.168 22.272ZM8.42 79.24C6.96667 79.24 5.65333 78.9267 4.48 78.3C3.32 77.6733 2.40667 76.8133 1.74 75.72C1.08667 74.6133 0.76 73.3733 0.76 72C0.76 70.6267 1.08667 69.3933 1.74 68.3C2.40667 67.1933 3.32 66.3267 4.48 65.7C5.65333 65.0733 6.96667 64.76 8.42 64.76C9.87333 64.76 11.18 65.0733 12.34 65.7C13.5 66.3267 14.4133 67.1933 15.08 68.3C15.7467 69.3933 16.08 70.6267 16.08 72C16.08 73.3733 15.7467 74.6133 15.08 75.72C14.4133 76.8133 13.5 77.6733 12.34 78.3C11.18 78.9267 9.87333 79.24 8.42 79.24ZM8.42 76.48C9.24667 76.48 9.99333 76.2933 10.66 75.92C11.3267 75.5333 11.8467 75 12.22 74.32C12.6067 73.64 12.8 72.8667 12.8 72C12.8 71.1333 12.6067 70.36 12.22 69.68C11.8467 69 11.3267 68.4733 10.66 68.1C9.99333 67.7133 9.24667 67.52 8.42 67.52C7.59333 67.52 6.84667 67.7133 6.18 68.1C5.51333 68.4733 4.98667 69 4.6 69.68C4.22667 70.36 4.04 71.1333 4.04 72C4.04 72.8667 4.22667 73.64 4.6 74.32C4.98667 75 5.51333 75.5333 6.18 75.92C6.84667 76.2933 7.59333 76.48 8.42 76.48ZM24.9559 68.98C25.9826 68.98 26.8826 69.1933 27.6559 69.62C28.4293 70.0333 29.0226 70.62 29.4359 71.38C29.8626 72.14 30.0759 73.02 30.0759 74.02C30.0759 75.0467 29.8226 75.96 29.3159 76.76C28.8226 77.5467 28.1293 78.16 27.2359 78.6C26.3426 79.0267 25.3293 79.24 24.1959 79.24C22.3159 79.24 20.8359 78.64 19.7559 77.44C18.6893 76.2267 18.1559 74.4533 18.1559 72.12C18.1559 69.96 18.6226 68.24 19.5559 66.96C20.5026 65.6667 21.9493 64.82 23.8959 64.42L29.0159 63.4L29.4359 66.08L24.9159 66.98C23.6893 67.22 22.7759 67.62 22.1759 68.18C21.5893 68.74 21.2426 69.5333 21.1359 70.56C21.6026 70.0533 22.1626 69.6667 22.8159 69.4C23.4693 69.12 24.1826 68.98 24.9559 68.98ZM24.2159 76.82C25.0159 76.82 25.6559 76.56 26.1359 76.04C26.6293 75.52 26.8759 74.86 26.8759 74.06C26.8759 73.2467 26.6293 72.6 26.1359 72.12C25.6559 71.64 25.0159 71.4 24.2159 71.4C23.4026 71.4 22.7493 71.64 22.2559 72.12C21.7626 72.6 21.5159 73.2467 21.5159 74.06C21.5159 74.8733 21.7693 75.54 22.2759 76.06C22.7826 76.5667 23.4293 76.82 24.2159 76.82ZM49.013 68.24V79H32.593V68.24H35.693V76.44H39.273V68.24H42.373V76.44H45.913V68.24H49.013ZM50.513 76.44V81.14H47.613V79H45.833V76.44H50.513ZM62.867 73.66C62.867 73.7 62.847 73.98 62.807 74.5H54.667C54.8137 75.1667 55.1604 75.6933 55.707 76.08C56.2537 76.4667 56.9337 76.66 57.747 76.66C58.307 76.66 58.8004 76.58 59.227 76.42C59.667 76.2467 60.0737 75.98 60.447 75.62L62.107 77.42C61.0937 78.58 59.6137 79.16 57.667 79.16C56.4537 79.16 55.3804 78.9267 54.447 78.46C53.5137 77.98 52.7937 77.32 52.287 76.48C51.7804 75.64 51.527 74.6867 51.527 73.62C51.527 72.5667 51.7737 71.62 52.267 70.78C52.7737 69.9267 53.4604 69.2667 54.327 68.8C55.207 68.32 56.187 68.08 57.267 68.08C58.3204 68.08 59.2737 68.3067 60.127 68.76C60.9804 69.2133 61.647 69.8667 62.127 70.72C62.6204 71.56 62.867 72.54 62.867 73.66ZM57.287 70.44C56.5804 70.44 55.987 70.64 55.507 71.04C55.027 71.44 54.7337 71.9867 54.627 72.68H59.927C59.8204 72 59.527 71.46 59.047 71.06C58.567 70.6467 57.9804 70.44 57.287 70.44ZM65.6586 68.24H68.7586V72.44H73.4386V68.24H76.5586V79H73.4386V74.98H68.7586V79H65.6586V68.24ZM79.9453 68.24H83.0453V74.64L88.2853 68.24H91.1453V79H88.0453V72.6L82.8253 79H79.9453V68.24ZM105.005 73.66C105.005 73.7 104.985 73.98 104.945 74.5H96.8045C96.9512 75.1667 97.2979 75.6933 97.8445 76.08C98.3912 76.4667 99.0712 76.66 99.8845 76.66C100.445 76.66 100.938 76.58 101.365 76.42C101.805 76.2467 102.211 75.98 102.585 75.62L104.245 77.42C103.231 78.58 101.751 79.16 99.8045 79.16C98.5912 79.16 97.5179 78.9267 96.5845 78.46C95.6512 77.98 94.9312 77.32 94.4245 76.48C93.9179 75.64 93.6645 74.6867 93.6645 73.62C93.6645 72.5667 93.9112 71.62 94.4045 70.78C94.9112 69.9267 95.5979 69.2667 96.4645 68.8C97.3445 68.32 98.3245 68.08 99.4045 68.08C100.458 68.08 101.411 68.3067 102.265 68.76C103.118 69.2133 103.785 69.8667 104.265 70.72C104.758 71.56 105.005 72.54 105.005 73.66ZM99.4245 70.44C98.7179 70.44 98.1245 70.64 97.6445 71.04C97.1645 71.44 96.8712 71.9867 96.7645 72.68H102.065C101.958 72 101.665 71.46 101.185 71.06C100.705 70.6467 100.118 70.44 99.4245 70.44ZM118.98 79.16C117.833 79.16 116.8 78.9267 115.88 78.46C114.973 77.98 114.26 77.32 113.74 76.48C113.233 75.64 112.98 74.6867 112.98 73.62C112.98 72.5533 113.233 71.6 113.74 70.76C114.26 69.92 114.973 69.2667 115.88 68.8C116.8 68.32 117.833 68.08 118.98 68.08C120.113 68.08 121.1 68.32 121.94 68.8C122.793 69.2667 123.413 69.94 123.8 70.82L121.38 72.12C120.82 71.1333 120.013 70.64 118.96 70.64C118.147 70.64 117.473 70.9067 116.94 71.44C116.407 71.9733 116.14 72.7 116.14 73.62C116.14 74.54 116.407 75.2667 116.94 75.8C117.473 76.3333 118.147 76.6 118.96 76.6C120.027 76.6 120.833 76.1067 121.38 75.12L123.8 76.44C123.413 77.2933 122.793 77.96 121.94 78.44C121.1 78.92 120.113 79.16 118.98 79.16ZM142.62 73.66C142.62 73.7 142.6 73.98 142.56 74.5H134.42C134.567 75.1667 134.913 75.6933 135.46 76.08C136.007 76.4667 136.687 76.66 137.5 76.66C138.06 76.66 138.553 76.58 138.98 76.42C139.42 76.2467 139.827 75.98 140.2 75.62L141.86 77.42C140.847 78.58 139.367 79.16 137.42 79.16C136.207 79.16 135.133 78.9267 134.2 78.46C133.267 77.98 132.547 77.32 132.04 76.48C131.533 75.64 131.28 74.6867 131.28 73.62C131.28 72.5667 131.527 71.62 132.02 70.78C132.527 69.9267 133.213 69.2667 134.08 68.8C134.96 68.32 135.94 68.08 137.02 68.08C138.073 68.08 139.027 68.3067 139.88 68.76C140.733 69.2133 141.4 69.8667 141.88 70.72C142.373 71.56 142.62 72.54 142.62 73.66ZM137.04 70.44C136.333 70.44 135.74 70.64 135.26 71.04C134.78 71.44 134.487 71.9867 134.38 72.68H139.68C139.573 72 139.28 71.46 138.8 71.06C138.32 70.6467 137.733 70.44 137.04 70.44ZM157.374 76.44V81.32H154.474V79H146.914V81.32H144.014V76.44H144.454C145.121 76.4267 145.581 76.0333 145.834 75.26C146.087 74.4867 146.247 73.3867 146.314 71.96L146.454 68.24H155.834V76.44H157.374ZM149.134 72.18C149.094 73.2733 149.007 74.1667 148.874 74.86C148.754 75.5533 148.521 76.08 148.174 76.44H152.714V70.8H149.194L149.134 72.18ZM159.738 68.24H162.838V74.64L168.078 68.24H170.938V79H167.838V72.6L162.618 79H159.738V68.24ZM174.337 68.24H177.437V72.44H182.117V68.24H185.237V79H182.117V74.98H177.437V79H174.337V68.24ZM193.663 79.16C192.53 79.16 191.51 78.9267 190.603 78.46C189.71 77.98 189.01 77.32 188.503 76.48C187.997 75.64 187.743 74.6867 187.743 73.62C187.743 72.5533 187.997 71.6 188.503 70.76C189.01 69.92 189.71 69.2667 190.603 68.8C191.51 68.32 192.53 68.08 193.663 68.08C194.797 68.08 195.81 68.32 196.703 68.8C197.597 69.2667 198.297 69.92 198.803 70.76C199.31 71.6 199.563 72.5533 199.563 73.62C199.563 74.6867 199.31 75.64 198.803 76.48C198.297 77.32 197.597 77.98 196.703 78.46C195.81 78.9267 194.797 79.16 193.663 79.16ZM193.663 76.6C194.463 76.6 195.117 76.3333 195.623 75.8C196.143 75.2533 196.403 74.5267 196.403 73.62C196.403 72.7133 196.143 71.9933 195.623 71.46C195.117 70.9133 194.463 70.64 193.663 70.64C192.863 70.64 192.203 70.9133 191.683 71.46C191.163 71.9933 190.903 72.7133 190.903 73.62C190.903 74.5267 191.163 75.2533 191.683 75.8C192.203 76.3333 192.863 76.6 193.663 76.6ZM212.609 79V72.56L209.389 77.96H208.069L204.929 72.54V79H202.109V68.24H205.369L208.809 74.46L212.469 68.24H215.389L215.429 79H212.609ZM224.478 71.68C225.878 71.6933 226.938 72.0067 227.658 72.62C228.378 73.2333 228.738 74.1133 228.738 75.26C228.738 76.46 228.331 77.3867 227.518 78.04C226.705 78.6933 225.551 79.02 224.058 79.02L218.818 79V68.24H221.918V71.68H224.478ZM229.898 68.24H232.998V79H229.898V68.24ZM223.778 76.8C224.378 76.8133 224.838 76.6867 225.158 76.42C225.478 76.1533 225.638 75.7533 225.638 75.22C225.638 74.7 225.478 74.32 225.158 74.08C224.851 73.84 224.391 73.7133 223.778 73.7L221.918 73.68V76.8H223.778ZM252.825 68.24V79H236.405V68.24H239.505V76.44H243.085V68.24H246.185V76.44H249.725V68.24H252.825ZM266.54 68.24V79H263.42V70.8H260.02L259.92 72.7C259.866 74.1133 259.733 75.2867 259.52 76.22C259.306 77.1533 258.96 77.8867 258.48 78.42C258 78.9533 257.333 79.22 256.48 79.22C256.026 79.22 255.486 79.14 254.86 78.98L255.02 76.42C255.233 76.4467 255.386 76.46 255.48 76.46C255.946 76.46 256.293 76.2933 256.52 75.96C256.76 75.6133 256.92 75.18 257 74.66C257.08 74.1267 257.14 73.4267 257.18 72.56L257.34 68.24H266.54ZM280.4 73.66C280.4 73.7 280.38 73.98 280.34 74.5H272.2C272.347 75.1667 272.693 75.6933 273.24 76.08C273.787 76.4667 274.467 76.66 275.28 76.66C275.84 76.66 276.333 76.58 276.76 76.42C277.2 76.2467 277.607 75.98 277.98 75.62L279.64 77.42C278.627 78.58 277.147 79.16 275.2 79.16C273.987 79.16 272.913 78.9267 271.98 78.46C271.047 77.98 270.327 77.32 269.82 76.48C269.313 75.64 269.06 74.6867 269.06 73.62C269.06 72.5667 269.307 71.62 269.8 70.78C270.307 69.9267 270.993 69.2667 271.86 68.8C272.74 68.32 273.72 68.08 274.8 68.08C275.853 68.08 276.807 68.3067 277.66 68.76C278.513 69.2133 279.18 69.8667 279.66 70.72C280.153 71.56 280.4 72.54 280.4 73.66ZM274.82 70.44C274.113 70.44 273.52 70.64 273.04 71.04C272.56 71.44 272.267 71.9867 272.16 72.68H277.46C277.353 72 277.06 71.46 276.58 71.06C276.1 70.6467 275.513 70.44 274.82 70.44ZM283.191 68.24H286.291V72.44H290.971V68.24H294.091V79H290.971V74.98H286.291V79H283.191V68.24ZM297.478 68.24H300.578V72.44H305.258V68.24H308.378V79H305.258V74.98H300.578V79H297.478V68.24ZM311.765 68.24H314.865V74.64L320.105 68.24H322.965V79H319.865V72.6L314.645 79H311.765V68.24ZM331.104 74.92H329.484V79H326.364V68.24H329.484V72.42H331.164L334.084 68.24H337.404L333.644 73.4L337.664 79H333.984L331.104 74.92ZM343.581 68.08C345.247 68.08 346.527 68.48 347.421 69.28C348.314 70.0667 348.761 71.26 348.761 72.86V79H345.841V77.66C345.254 78.66 344.161 79.16 342.561 79.16C341.734 79.16 341.014 79.02 340.401 78.74C339.801 78.46 339.341 78.0733 339.021 77.58C338.701 77.0867 338.541 76.5267 338.541 75.9C338.541 74.9 338.914 74.1133 339.661 73.54C340.421 72.9667 341.587 72.68 343.161 72.68H345.641C345.641 72 345.434 71.48 345.021 71.12C344.607 70.7467 343.987 70.56 343.161 70.56C342.587 70.56 342.021 70.6533 341.461 70.84C340.914 71.0133 340.447 71.2533 340.061 71.56L338.941 69.38C339.527 68.9667 340.227 68.6467 341.041 68.42C341.867 68.1933 342.714 68.08 343.581 68.08ZM343.341 77.06C343.874 77.06 344.347 76.94 344.761 76.7C345.174 76.4467 345.467 76.08 345.641 75.6V74.5H343.501C342.221 74.5 341.581 74.92 341.581 75.76C341.581 76.16 341.734 76.48 342.041 76.72C342.361 76.9467 342.794 77.06 343.341 77.06ZM362.371 79V72.56L359.151 77.96H357.831L354.691 72.54V79H351.871V68.24H355.131L358.571 74.46L362.231 68.24H365.151L365.191 79H362.371ZM368.58 68.24H371.68V74.64L376.92 68.24H379.78V79H376.68V72.6L371.46 79H368.58V68.24ZM1.5 93.24H4.6V99.64L9.84 93.24H12.7V104H9.6V97.6L4.38 104H1.5V93.24ZM25.8033 93.04C26.9633 93.04 27.9966 93.28 28.9033 93.76C29.8233 94.2267 30.5433 94.8867 31.0633 95.74C31.5833 96.5933 31.8433 97.5533 31.8433 98.62C31.8433 99.6867 31.5833 100.647 31.0633 101.5C30.5433 102.353 29.8233 103.02 28.9033 103.5C27.9966 103.967 26.9633 104.2 25.8033 104.2C24.7766 104.2 23.8433 104.033 23.0033 103.7C22.1766 103.353 21.4899 102.86 20.9433 102.22L22.7233 100.54C23.5366 101.38 24.5233 101.8 25.6833 101.8C26.4566 101.8 27.1233 101.607 27.6833 101.22C28.2433 100.833 28.6233 100.307 28.8233 99.64H24.3033V97.5H28.7833C28.5699 96.86 28.1899 96.3533 27.6433 95.98C27.0966 95.6067 26.4433 95.42 25.6833 95.42C24.5366 95.42 23.5499 95.8467 22.7233 96.7L20.9433 95.04C21.4899 94.3867 22.1766 93.8933 23.0033 93.56C23.8433 93.2133 24.7766 93.04 25.8033 93.04ZM39.1002 99.92H37.4802V104H34.3602V93.24H37.4802V97.42H39.1602L42.0802 93.24H45.4002L41.6402 98.4L45.6602 104H41.9802L39.1002 99.92ZM52.3802 104.16C51.2335 104.16 50.2002 103.927 49.2802 103.46C48.3735 102.98 47.6602 102.32 47.1402 101.48C46.6335 100.64 46.3802 99.6867 46.3802 98.62C46.3802 97.5533 46.6335 96.6 47.1402 95.76C47.6602 94.92 48.3735 94.2667 49.2802 93.8C50.2002 93.32 51.2335 93.08 52.3802 93.08C53.5135 93.08 54.5002 93.32 55.3402 93.8C56.1935 94.2667 56.8135 94.94 57.2002 95.82L54.7802 97.12C54.2202 96.1333 53.4135 95.64 52.3602 95.64C51.5468 95.64 50.8735 95.9067 50.3402 96.44C49.8068 96.9733 49.5402 97.7 49.5402 98.62C49.5402 99.54 49.8068 100.267 50.3402 100.8C50.8735 101.333 51.5468 101.6 52.3602 101.6C53.4268 101.6 54.2335 101.107 54.7802 100.12L57.2002 101.44C56.8135 102.293 56.1935 102.96 55.3402 103.44C54.5002 103.92 53.5135 104.16 52.3802 104.16ZM70.1961 93.24V104H67.0761V95.8H62.5961V104H59.4961V93.24H70.1961ZM84.0475 98.66C84.0475 98.7 84.0275 98.98 83.9875 99.5H75.8475C75.9942 100.167 76.3408 100.693 76.8875 101.08C77.4342 101.467 78.1142 101.66 78.9275 101.66C79.4875 101.66 79.9808 101.58 80.4075 101.42C80.8475 101.247 81.2542 100.98 81.6275 100.62L83.2875 102.42C82.2742 103.58 80.7942 104.16 78.8475 104.16C77.6342 104.16 76.5608 103.927 75.6275 103.46C74.6942 102.98 73.9742 102.32 73.4675 101.48C72.9608 100.64 72.7075 99.6867 72.7075 98.62C72.7075 97.5667 72.9542 96.62 73.4475 95.78C73.9542 94.9267 74.6408 94.2667 75.5075 93.8C76.3875 93.32 77.3675 93.08 78.4475 93.08C79.5008 93.08 80.4542 93.3067 81.3075 93.76C82.1608 94.2133 82.8275 94.8667 83.3075 95.72C83.8008 96.56 84.0475 97.54 84.0475 98.66ZM78.4675 95.44C77.7608 95.44 77.1675 95.64 76.6875 96.04C76.2075 96.44 75.9142 96.9867 75.8075 97.68H81.1075C81.0008 97 80.7075 96.46 80.2275 96.06C79.7475 95.6467 79.1608 95.44 78.4675 95.44ZM93.1791 93.08C94.1791 93.08 95.0857 93.3133 95.8991 93.78C96.7257 94.2333 97.3724 94.88 97.8391 95.72C98.3057 96.5467 98.5391 97.5133 98.5391 98.62C98.5391 99.7267 98.3057 100.7 97.8391 101.54C97.3724 102.367 96.7257 103.013 95.8991 103.48C95.0857 103.933 94.1791 104.16 93.1791 104.16C91.8057 104.16 90.7257 103.727 89.9391 102.86V107.88H86.8191V93.24H89.7991V94.48C90.5724 93.5467 91.6991 93.08 93.1791 93.08ZM92.6391 101.6C93.4391 101.6 94.0924 101.333 94.5991 100.8C95.1191 100.253 95.3791 99.5267 95.3791 98.62C95.3791 97.7133 95.1191 96.9933 94.5991 96.46C94.0924 95.9133 93.4391 95.64 92.6391 95.64C91.8391 95.64 91.1791 95.9133 90.6591 96.46C90.1524 96.9933 89.8991 97.7133 89.8991 98.62C89.8991 99.5267 90.1524 100.253 90.6591 100.8C91.1791 101.333 91.8391 101.6 92.6391 101.6ZM109.775 95.8H106.135V104H103.035V95.8H99.3952V93.24H109.775V95.8ZM116.018 93.08C117.685 93.08 118.965 93.48 119.858 94.28C120.752 95.0667 121.198 96.26 121.198 97.86V104H118.278V102.66C117.692 103.66 116.598 104.16 114.998 104.16C114.172 104.16 113.452 104.02 112.838 103.74C112.238 103.46 111.778 103.073 111.458 102.58C111.138 102.087 110.978 101.527 110.978 100.9C110.978 99.9 111.352 99.1133 112.098 98.54C112.858 97.9667 114.025 97.68 115.598 97.68H118.078C118.078 97 117.872 96.48 117.458 96.12C117.045 95.7467 116.425 95.56 115.598 95.56C115.025 95.56 114.458 95.6533 113.898 95.84C113.352 96.0133 112.885 96.2533 112.498 96.56L111.378 94.38C111.965 93.9667 112.665 93.6467 113.478 93.42C114.305 93.1933 115.152 93.08 116.018 93.08ZM115.778 102.06C116.312 102.06 116.785 101.94 117.198 101.7C117.612 101.447 117.905 101.08 118.078 100.6V99.5H115.938C114.658 99.5 114.018 99.92 114.018 100.76C114.018 101.16 114.172 101.48 114.478 101.72C114.798 101.947 115.232 102.06 115.778 102.06ZM134.809 104V97.56L131.589 102.96H130.269L127.129 97.54V104H124.309V93.24H127.569L131.009 99.46L134.669 93.24H137.589L137.629 104H134.809ZM141.017 93.24H144.117V99.64L149.357 93.24H152.217V104H149.117V97.6L143.897 104H141.017V93.24Z" fill="white"/>
</svg>
