<svg width="108" height="124" viewBox="0 0 108 124" fill="none" xmlns="http://www.w3.org/2000/svg">
<path d="M103.541 21.3566L65.6858 0.857806C62.0948 -1.08733 57.1571 0.408928 55.212 3.99995L33.0673 45.1471H6.13467C2.69327 45.1471 0 47.8404 0 51.2818V62.0548V117.865C0 121.307 2.69327 124 6.13467 124H92.1696C95.611 124 98.3043 121.307 98.3043 117.865V102.304H100.848C102.195 102.304 103.242 101.257 103.242 99.9102V82.1047C103.242 80.7581 102.195 79.7107 100.848 79.7107H98.3043V62.2045C98.3043 59.3616 96.2095 56.8179 93.5162 56.2194L106.683 31.8304C108.628 28.0897 107.282 23.4513 103.541 21.3566ZM76.6085 12.2294L52.9676 56.0698H46.2344L71.5212 9.53611L76.6085 12.2294ZM59.5511 6.24434C60.2993 4.89771 62.0948 4.2992 63.4414 5.04733L67.1821 7.1421L40.8479 56.0698H32.6185L59.5511 6.24434ZM4.63841 51.1321C4.63841 50.6833 5.23691 49.9351 5.98504 49.9351H30.3741L27.0823 55.9202H5.98504C5.53616 55.9202 5.08728 55.9202 4.63841 56.0698V51.1321ZM93.3666 117.865C93.3666 118.613 92.7681 119.212 92.02 119.212H5.98504C5.23691 119.212 4.63841 118.613 4.63841 117.865V62.2045C4.63841 61.4563 5.23691 60.8578 5.98504 60.8578H28.5786H38.1546H55.6609H89.3267H91.8704C92.6185 60.8578 93.217 61.4563 93.217 62.2045V79.7107H84.0898C80.0499 79.7107 76.9078 83.0025 76.9078 86.8927V95.1222C76.9078 99.1621 80.1995 102.304 84.0898 102.304H93.3666V117.865ZM98.1546 84.4987H98.3043V97.5162H98.1546H84.0898C82.7432 97.5162 81.6958 96.4688 81.6958 95.1222V86.8927C81.6958 85.5461 82.7432 84.4987 84.0898 84.4987H98.1546ZM102.344 29.4364L87.9801 56.0698H58.3541L80.798 14.6234L101.147 25.6957C102.643 26.2942 103.092 28.0897 102.344 29.4364Z" fill="#3A5BD1"/>
<path d="M93.217 27.1914L92.02 26.5929C89.0274 24.947 84.9875 26.1441 83.3416 29.1366L81.8454 31.9795C81.0973 33.4757 80.798 35.2712 81.3965 36.9171C81.8454 38.563 83.0424 39.9096 84.5387 40.6578L85.7357 41.2563C86.6334 41.7052 87.6808 42.0044 88.7282 42.0044C91.1222 42.0044 93.217 40.6578 94.414 38.7126L95.9102 35.8697C97.4065 32.7276 96.2095 28.8373 93.217 27.1914ZM91.5711 33.6253L90.0748 36.4682C89.6259 37.2164 88.5786 37.5156 87.8304 37.0667L86.6334 36.3186C86.3342 36.169 86.0349 35.7201 85.8853 35.4209C85.7357 34.972 85.7357 34.5231 86.0349 34.2239L87.5312 31.381C87.8304 30.9321 88.4289 30.4832 89.0274 30.4832C89.3267 30.4832 89.4763 30.4832 89.7756 30.6328L90.9726 31.2313C91.5711 31.8298 91.8703 32.7276 91.5711 33.6253Z" fill="#3A5BD1"/>
</svg>
