<svg width="124" height="110" viewBox="0 0 124 110" fill="none" xmlns="http://www.w3.org/2000/svg">
<path d="M121.933 72.3329C123.075 72.3329 124 71.4075 124 70.2662V53.7329C124 52.5916 123.075 51.6662 121.933 51.6662H95.9223L108.928 38.6607C109.735 37.8537 109.735 36.5455 108.928 35.7384L97.6355 24.4461C96.8285 23.6394 95.5203 23.6394 94.7133 24.4461C91.4844 27.6751 86.249 27.6751 83.0201 24.4461C79.7912 21.2172 79.7912 15.9819 83.0201 12.7529C83.8268 11.9459 83.8268 10.6377 83.0201 9.83068L73.7945 0.605081C72.9874 -0.201694 71.6792 -0.201694 70.8722 0.605081L19.8111 51.6662H2.06667C0.92535 51.6662 0 52.5916 0 53.7329V70.2662C0 71.4075 0.92535 72.3329 2.06667 72.3329C6.63219 72.3329 10.3333 76.034 10.3333 80.5995C10.3333 85.1651 6.63219 88.8662 2.06667 88.8662C0.92535 88.8662 0 89.7916 0 90.9329V107.466C0 108.608 0.92535 109.533 2.06667 109.533H121.933C123.075 109.533 124 108.608 124 107.466V90.9329C124 89.7916 123.075 88.8662 121.933 88.8662C117.368 88.8662 113.667 85.1651 113.667 80.5995C113.667 76.034 117.368 72.3329 121.933 72.3329ZM72.3333 4.98848L78.7565 11.4117C74.7754 16.9839 76.0652 24.7285 81.6375 28.7097C85.9493 31.7906 91.7427 31.7906 96.0545 28.7097L104.544 37.1996L90.0777 51.6662H83.5223L88.2611 46.9274C89.0679 46.1203 89.0679 44.8121 88.2611 44.0051L65.5278 21.2718C64.7208 20.465 63.4126 20.465 62.6055 21.2718L32.2111 51.6662H25.6556L72.3333 4.98848ZM77.6777 51.6662H38.0556L64.0667 25.6551L83.8777 45.4662L77.6777 51.6662ZM109.693 82.6548C110.57 87.8675 114.654 91.9518 119.867 92.828V105.4H103.333V97.1329H99.2V105.4H24.8V103.333H20.6667V105.4H4.13333V92.828C10.8869 91.6929 15.4416 85.2979 14.3065 78.5443C13.4302 73.3316 9.34624 69.2474 4.13333 68.3711V55.7996H20.6667V61.9996H24.8V55.7996H119.867V68.3711C113.113 69.5062 108.558 75.9015 109.693 82.6548Z" fill="#3A5BD1"/>
<path d="M103.333 59.9326H99.2V68.1993H103.333V59.9326Z" fill="#3A5BD1"/>
<path d="M103.333 72.333H99.2V80.5997H103.333V72.333Z" fill="#3A5BD1"/>
<path d="M103.333 84.7334H99.2V93.0001H103.333V84.7334Z" fill="#3A5BD1"/>
<path d="M24.8001 66.1328H20.6667V74.3995H24.8001V66.1328Z" fill="#3A5BD1"/>
<path d="M24.8001 78.5332H20.6667V86.7999H24.8001V78.5332Z" fill="#3A5BD1"/>
<path d="M24.8001 90.9326H20.6667V99.1993H24.8001V90.9326Z" fill="#3A5BD1"/>
<path d="M90.9333 66.1326C88.6504 66.1326 86.8 64.2822 86.8 61.9993C86.8 60.858 85.8746 59.9326 84.7333 59.9326H39.2667C38.1253 59.9326 37.2 60.858 37.2 61.9993C37.2 64.2822 35.3496 66.1326 33.0667 66.1326C31.9253 66.1326 31 67.058 31 68.1993V92.9993C31 94.1406 31.9253 95.0659 33.0667 95.0659C35.3496 95.0659 37.2 96.9164 37.2 99.1993C37.2 100.341 38.1253 101.266 39.2667 101.266H84.7333C85.8746 101.266 86.8 100.341 86.8 99.1993C86.8 96.9164 88.6504 95.0659 90.9333 95.0659C92.0746 95.0659 93 94.1406 93 92.9993V68.1993C93 67.058 92.0746 66.1326 90.9333 66.1326ZM88.8667 91.193C85.9571 91.951 83.685 94.223 82.9271 97.1326H41.0729C40.315 94.223 38.0429 91.951 35.1333 91.193V70.0056C38.0429 69.2476 40.315 66.9756 41.0729 64.0659H82.9271C83.685 66.9756 85.9571 69.2476 88.8667 70.0056V91.193Z" fill="#3A5BD1"/>
</svg>
